<svg id="svg" version="1.1" xmlns="http://www.w3.org/2000/svg" xmlns:xlink="http://www.w3.org/1999/xlink" width="400" height="189.51917882225823" viewBox="0, 0, 400,189.51917882225823"><g id="svgg"><path id="path0" d="M97.536 0.214 C 96.180 0.292,94.175 0.438,93.081 0.539 C 91.986 0.640,90.901 0.679,90.669 0.626 C 90.424 0.570,90.121 0.657,89.945 0.834 C 89.715 1.064,89.257 1.137,88.057 1.137 C 86.901 1.137,86.396 1.214,86.188 1.422 C 85.980 1.630,85.471 1.706,84.279 1.706 C 83.385 1.706,82.654 1.786,82.654 1.884 C 82.654 1.982,82.334 2.089,81.943 2.121 L 81.232 2.180 81.187 27.204 C 81.157 43.854,81.077 52.354,80.948 52.607 C 80.817 52.862,80.733 67.360,80.690 96.872 C 80.627 140.692,80.578 144.033,80.001 144.597 C 79.974 144.623,79.942 144.723,79.929 144.818 C 79.916 144.914,79.841 145.056,79.763 145.134 C 79.685 145.212,79.621 145.714,79.621 146.250 C 79.621 146.785,79.543 147.304,79.449 147.403 C 79.354 147.502,79.228 148.009,79.168 148.531 C 79.108 149.052,79.006 149.923,78.943 150.467 C 78.861 151.160,78.731 151.485,78.506 151.557 C 78.304 151.621,78.170 151.888,78.144 152.275 C 78.121 152.614,78.030 153.062,77.940 153.270 C 77.621 154.016,77.346 155.010,77.346 155.422 C 77.346 155.653,77.218 155.890,77.062 155.950 C 76.905 156.010,76.777 156.224,76.777 156.424 C 76.777 156.625,76.649 156.838,76.493 156.898 C 76.336 156.958,76.209 157.170,76.209 157.369 C 76.209 157.700,76.042 158.111,75.605 158.863 C 75.514 159.019,75.391 159.290,75.331 159.466 C 75.272 159.641,75.104 159.830,74.958 159.886 C 74.811 159.942,74.692 160.161,74.692 160.373 C 74.692 160.585,74.607 160.758,74.502 160.758 C 74.398 160.758,74.313 160.967,74.313 161.223 C 74.313 161.478,74.198 161.756,74.057 161.839 C 73.917 161.922,73.555 162.367,73.253 162.828 C 72.951 163.288,72.490 163.885,72.229 164.155 C 71.967 164.424,71.584 164.879,71.377 165.166 C 71.170 165.453,70.892 165.687,70.761 165.687 C 70.629 165.687,70.521 165.773,70.521 165.879 C 70.521 166.090,69.509 167.204,69.316 167.204 C 69.146 167.204,68.436 167.931,68.436 168.105 C 68.436 168.184,68.159 168.369,67.820 168.517 C 67.481 168.664,67.025 168.973,66.807 169.204 C 66.332 169.706,64.357 170.834,64.210 170.687 C 64.153 170.630,64.011 170.762,63.895 170.979 C 63.768 171.216,63.496 171.374,63.216 171.374 C 62.959 171.374,62.749 171.460,62.749 171.564 C 62.749 171.668,62.536 171.754,62.275 171.754 C 62.014 171.754,61.801 171.839,61.801 171.943 C 61.801 172.047,61.502 172.133,61.137 172.133 C 60.697 172.133,60.474 172.221,60.474 172.397 C 60.474 172.701,60.071 172.891,59.427 172.891 C 59.181 172.891,58.927 172.976,58.863 173.081 C 58.798 173.185,58.324 173.270,57.809 173.270 C 57.294 173.270,56.872 173.355,56.872 173.460 C 56.872 173.567,56.326 173.649,55.613 173.649 C 54.651 173.649,54.300 173.725,54.120 173.969 C 53.762 174.459,44.187 174.463,43.646 173.974 C 43.409 173.759,42.969 173.649,42.345 173.649 C 41.827 173.649,41.322 173.573,41.223 173.479 C 41.124 173.386,40.701 173.263,40.284 173.207 C 38.670 172.991,38.009 172.788,38.009 172.509 C 38.009 172.350,37.803 172.203,37.536 172.172 C 37.086 172.120,36.520 171.916,35.785 171.542 C 35.604 171.450,35.329 171.374,35.175 171.374 C 35.021 171.374,34.804 171.204,34.692 170.995 C 34.580 170.787,34.321 170.616,34.117 170.616 C 33.912 170.616,33.744 170.547,33.744 170.462 C 33.744 170.377,33.437 170.187,33.061 170.040 C 32.686 169.892,32.192 169.551,31.965 169.280 C 31.737 169.010,31.288 168.672,30.967 168.530 C 30.645 168.388,30.222 168.031,30.025 167.738 C 29.829 167.445,29.562 167.205,29.431 167.204 C 29.301 167.204,29.194 167.118,29.194 167.014 C 29.194 166.910,29.066 166.825,28.910 166.825 C 28.754 166.825,28.626 166.697,28.626 166.540 C 28.626 166.384,28.540 166.256,28.436 166.256 C 28.332 166.256,28.246 166.128,28.246 165.972 C 28.246 165.815,28.153 165.687,28.040 165.687 C 27.819 165.687,27.126 164.934,27.115 164.683 C 27.112 164.599,26.810 164.224,26.445 163.848 C 26.081 163.472,25.782 163.104,25.782 163.030 C 25.782 162.956,25.526 162.574,25.213 162.180 C 24.900 161.786,24.645 161.306,24.645 161.111 C 24.645 160.917,24.517 160.758,24.360 160.758 C 24.204 160.758,24.089 160.694,24.105 160.616 C 24.151 160.393,23.535 159.091,23.320 158.959 C 23.215 158.894,23.128 158.682,23.128 158.488 C 23.128 158.294,23.032 158.104,22.915 158.065 C 22.797 158.026,22.701 157.768,22.701 157.491 C 22.701 157.215,22.584 156.944,22.441 156.889 C 22.297 156.834,22.180 156.616,22.180 156.404 C 22.180 156.192,22.102 156.019,22.007 156.019 C 21.912 156.019,21.777 155.678,21.706 155.262 C 21.636 154.845,21.500 154.456,21.405 154.397 C 21.310 154.339,21.232 154.049,21.232 153.753 C 21.232 153.450,21.108 153.168,20.948 153.107 C 20.771 153.039,20.664 152.750,20.664 152.339 C 20.664 151.977,20.578 151.628,20.474 151.564 C 20.370 151.500,20.284 151.158,20.284 150.806 C 20.284 150.453,20.198 150.111,20.092 150.045 C 19.986 149.980,19.944 149.853,20.000 149.763 C 20.056 149.673,20.014 149.546,19.908 149.481 C 19.802 149.415,19.716 148.957,19.716 148.463 C 19.716 147.968,19.630 147.479,19.526 147.375 C 19.422 147.271,19.291 146.682,19.234 146.067 C 19.177 145.451,19.059 144.858,18.972 144.749 C 18.885 144.639,18.769 143.766,18.714 142.807 C 18.659 141.849,18.542 140.953,18.454 140.817 C 18.366 140.680,18.251 120.777,18.199 96.588 L 18.104 52.607 9.052 52.557 L 0.000 52.508 -0.000 96.461 C -0.000 138.795,0.062 146.263,0.408 146.048 C 0.553 145.959,0.626 146.653,0.654 148.359 C 0.659 148.682,0.760 149.066,0.877 149.212 C 0.995 149.359,1.131 149.986,1.180 150.607 C 1.230 151.227,1.368 151.767,1.488 151.807 C 1.611 151.848,1.706 152.268,1.706 152.774 C 1.706 153.266,1.787 153.749,1.885 153.848 C 1.984 153.947,2.085 154.431,2.110 154.922 C 2.137 155.449,2.258 155.855,2.405 155.911 C 2.546 155.966,2.654 156.299,2.654 156.682 C 2.654 157.108,2.759 157.398,2.938 157.467 C 3.114 157.534,3.223 157.822,3.223 158.219 C 3.223 158.573,3.308 158.863,3.412 158.863 C 3.517 158.863,3.602 159.151,3.602 159.503 C 3.602 159.855,3.730 160.249,3.886 160.379 C 4.043 160.509,4.171 160.824,4.171 161.079 C 4.171 161.335,4.299 161.672,4.455 161.828 C 4.611 161.984,4.739 162.272,4.739 162.467 C 4.739 162.662,4.825 162.874,4.929 162.938 C 5.033 163.003,5.118 163.253,5.118 163.495 C 5.118 163.737,5.246 164.041,5.403 164.171 C 5.559 164.300,5.687 164.614,5.687 164.869 C 5.687 165.123,5.764 165.283,5.857 165.226 C 6.053 165.105,6.256 165.547,6.256 166.093 C 6.256 166.299,6.331 166.422,6.422 166.365 C 6.514 166.308,6.636 166.495,6.694 166.780 C 6.751 167.065,6.965 167.476,7.168 167.692 C 7.371 167.909,7.595 168.271,7.667 168.498 C 7.739 168.725,7.878 168.910,7.975 168.910 C 8.072 168.910,8.152 169.102,8.152 169.336 C 8.152 169.571,8.493 170.147,8.910 170.616 C 9.327 171.085,9.668 171.576,9.668 171.706 C 9.668 171.836,9.748 171.943,9.845 171.943 C 9.942 171.943,10.075 172.112,10.141 172.318 C 10.206 172.524,10.553 172.994,10.912 173.364 C 11.270 173.733,11.564 174.119,11.564 174.221 C 11.564 174.324,11.628 174.410,11.706 174.412 C 11.784 174.415,12.190 174.881,12.607 175.447 C 13.024 176.014,13.429 176.481,13.507 176.485 C 13.586 176.489,14.098 176.941,14.646 177.488 C 15.956 178.796,17.203 179.905,17.363 179.905 C 17.434 179.905,17.674 180.102,17.897 180.342 C 18.120 180.583,18.455 180.838,18.642 180.910 C 18.829 180.981,18.928 181.126,18.863 181.231 C 18.798 181.336,18.921 181.422,19.136 181.422 C 19.350 181.422,19.526 181.497,19.526 181.589 C 19.526 181.681,19.675 181.811,19.858 181.878 C 20.518 182.120,21.232 182.584,21.232 182.770 C 21.232 182.875,21.307 182.915,21.398 182.858 C 21.489 182.802,21.915 183.010,22.344 183.321 C 22.774 183.632,23.253 183.886,23.411 183.886 C 23.568 183.886,23.697 183.966,23.697 184.063 C 23.697 184.161,23.931 184.267,24.218 184.300 C 24.511 184.334,24.719 184.464,24.692 184.597 C 24.663 184.743,24.855 184.834,25.193 184.834 C 25.506 184.834,25.788 184.956,25.851 185.118 C 25.911 185.275,26.176 185.403,26.440 185.403 C 26.703 185.403,26.919 185.483,26.919 185.580 C 26.919 185.678,27.197 185.785,27.536 185.817 C 27.904 185.853,28.133 185.972,28.104 186.114 C 28.073 186.271,28.306 186.351,28.795 186.351 C 29.276 186.351,29.571 186.450,29.642 186.635 C 29.711 186.814,30.000 186.919,30.421 186.919 C 30.789 186.919,31.090 187.000,31.090 187.098 C 31.090 187.196,31.453 187.303,31.896 187.335 C 32.339 187.367,32.686 187.484,32.666 187.594 C 32.645 187.712,33.024 187.799,33.586 187.804 C 34.164 187.810,34.603 187.913,34.697 188.064 C 34.787 188.210,35.335 188.350,36.007 188.398 C 36.642 188.444,37.209 188.557,37.265 188.649 C 37.322 188.740,38.041 188.815,38.863 188.815 C 39.684 188.815,40.409 188.900,40.474 189.005 C 40.545 189.120,41.961 189.194,44.087 189.194 C 46.291 189.194,47.583 189.264,47.583 189.384 C 47.583 189.488,47.882 189.573,48.246 189.573 C 48.611 189.573,48.910 189.488,48.910 189.384 C 48.910 189.264,50.233 189.194,52.501 189.194 C 54.690 189.194,56.137 189.120,56.209 189.005 C 56.273 188.900,56.986 188.815,57.793 188.815 C 58.600 188.815,59.342 188.735,59.441 188.637 C 59.540 188.538,60.115 188.438,60.720 188.414 C 61.462 188.385,61.870 188.278,61.977 188.087 C 62.085 187.894,62.442 187.804,63.098 187.804 C 63.724 187.804,64.093 187.716,64.157 187.551 C 64.215 187.399,64.556 187.299,65.018 187.299 C 65.438 187.299,65.782 187.213,65.782 187.109 C 65.782 187.005,66.074 186.919,66.432 186.919 C 66.789 186.919,67.210 186.791,67.366 186.635 C 67.523 186.479,67.955 186.351,68.328 186.351 C 68.762 186.351,68.988 186.267,68.957 186.118 C 68.931 185.990,69.123 185.855,69.384 185.818 C 69.645 185.780,69.939 185.672,70.038 185.576 C 70.137 185.481,70.417 185.403,70.660 185.403 C 70.903 185.403,71.151 185.275,71.211 185.118 C 71.271 184.962,71.488 184.834,71.693 184.834 C 71.897 184.834,72.193 184.706,72.349 184.550 C 72.506 184.393,72.798 184.265,72.999 184.265 C 73.200 184.265,73.365 184.180,73.365 184.076 C 73.365 183.972,73.571 183.886,73.823 183.886 C 74.075 183.886,74.310 183.822,74.344 183.744 C 74.471 183.458,75.653 182.735,75.822 182.839 C 75.917 182.898,76.065 182.837,76.149 182.704 C 76.234 182.570,76.623 182.293,77.014 182.088 C 77.405 181.883,77.725 181.649,77.725 181.568 C 77.725 181.488,77.844 181.422,77.989 181.422 C 78.134 181.422,78.302 181.294,78.362 181.137 C 78.422 180.981,78.606 180.853,78.771 180.853 C 78.936 180.853,79.268 180.640,79.509 180.379 C 79.751 180.118,80.006 179.905,80.077 179.905 C 80.229 179.905,80.595 179.622,81.363 178.910 C 81.672 178.623,81.968 178.389,82.020 178.389 C 82.204 178.389,83.223 177.277,83.223 177.076 C 83.223 176.964,83.357 176.872,83.521 176.872 C 83.824 176.872,84.360 176.440,84.360 176.195 C 84.360 176.121,84.723 175.694,85.166 175.246 C 87.085 173.308,87.393 172.961,87.393 172.743 C 87.393 172.616,87.479 172.512,87.583 172.512 C 87.687 172.512,87.773 172.432,87.773 172.334 C 87.773 172.236,88.031 171.874,88.346 171.528 C 88.662 171.183,89.021 170.672,89.145 170.393 C 89.268 170.114,89.428 169.921,89.499 169.965 C 89.570 170.009,89.681 169.832,89.746 169.572 C 89.812 169.312,89.949 169.100,90.051 169.100 C 90.153 169.100,90.237 168.981,90.237 168.835 C 90.237 168.690,90.365 168.522,90.521 168.462 C 90.678 168.402,90.806 168.137,90.806 167.873 C 90.806 167.609,90.878 167.393,90.965 167.393 C 91.053 167.393,91.288 167.075,91.487 166.685 C 91.686 166.296,91.955 165.863,92.085 165.724 C 92.216 165.585,92.322 165.385,92.322 165.281 C 92.322 165.177,92.450 164.963,92.607 164.807 C 92.763 164.651,92.891 164.363,92.891 164.168 C 92.891 163.973,92.976 163.761,93.081 163.697 C 93.185 163.632,93.270 163.423,93.270 163.232 C 93.270 163.041,93.398 162.835,93.555 162.775 C 93.711 162.715,93.839 162.444,93.839 162.173 C 93.839 161.901,93.967 161.551,94.123 161.395 C 94.280 161.238,94.408 160.946,94.408 160.745 C 94.408 160.544,94.493 160.379,94.597 160.379 C 94.701 160.379,94.787 160.081,94.787 159.716 C 94.787 159.245,94.871 159.052,95.078 159.052 C 95.265 159.052,95.357 158.899,95.333 158.626 C 95.269 157.884,95.349 157.509,95.545 157.630 C 95.700 157.726,95.778 157.238,95.728 156.486 C 95.724 156.430,95.852 156.254,96.012 156.093 C 96.172 155.933,96.303 155.510,96.303 155.152 C 96.303 154.795,96.389 154.502,96.493 154.502 C 96.597 154.502,96.684 154.225,96.685 153.886 C 96.689 153.050,96.879 152.399,97.083 152.525 C 97.176 152.582,97.251 152.280,97.251 151.853 C 97.251 151.427,97.379 150.772,97.536 150.397 C 97.692 150.023,97.820 149.301,97.820 148.792 C 97.820 148.283,97.905 147.867,98.009 147.867 C 98.114 147.867,98.199 147.409,98.199 146.848 C 98.199 145.654,98.379 144.616,98.566 144.732 C 98.639 144.777,98.719 143.986,98.745 142.975 C 98.773 141.867,98.898 140.923,99.060 140.597 C 99.286 140.138,99.328 135.624,99.334 111.036 C 99.338 95.076,99.387 81.972,99.442 81.916 C 99.498 81.861,99.731 81.938,99.961 82.089 C 100.824 82.653,120.776 83.190,121.407 82.666 C 121.530 82.564,122.371 82.466,123.276 82.449 C 124.314 82.428,125.046 82.322,125.257 82.162 C 125.443 82.021,126.069 81.905,126.659 81.902 C 127.370 81.898,127.805 81.801,127.962 81.611 C 128.118 81.424,128.541 81.327,129.206 81.327 C 129.761 81.327,130.267 81.242,130.332 81.137 C 130.396 81.033,130.811 80.948,131.253 80.948 C 131.695 80.948,132.141 80.864,132.244 80.761 C 132.346 80.658,132.726 80.536,133.087 80.490 C 133.448 80.443,133.787 80.389,133.839 80.369 C 133.891 80.350,133.998 80.344,134.076 80.357 C 134.154 80.369,134.197 80.273,134.171 80.142 C 134.142 79.997,134.381 79.882,134.787 79.844 C 135.152 79.811,135.531 79.704,135.630 79.607 C 135.729 79.511,136.092 79.431,136.436 79.431 C 136.780 79.431,137.062 79.357,137.062 79.266 C 137.062 79.175,137.403 79.046,137.819 78.979 C 138.273 78.907,138.558 78.764,138.530 78.623 C 138.502 78.484,138.734 78.364,139.100 78.329 C 139.438 78.297,139.716 78.190,139.716 78.092 C 139.716 77.995,139.924 77.915,140.178 77.915 C 140.433 77.915,140.687 77.840,140.743 77.750 C 140.799 77.659,141.109 77.532,141.430 77.467 C 141.761 77.401,141.963 77.266,141.896 77.156 C 141.828 77.047,142.029 76.912,142.357 76.846 C 142.677 76.782,142.938 76.655,142.938 76.564 C 142.938 76.473,143.152 76.398,143.412 76.398 C 143.673 76.398,143.886 76.313,143.886 76.209 C 143.886 76.104,144.008 76.019,144.157 76.019 C 144.306 76.019,144.542 75.905,144.681 75.766 C 145.045 75.402,146.696 74.502,147.001 74.502 C 147.142 74.502,147.307 74.374,147.367 74.218 C 147.427 74.062,147.607 73.934,147.767 73.934 C 147.926 73.934,148.036 73.829,148.009 73.701 C 147.983 73.573,148.154 73.439,148.389 73.404 C 148.623 73.368,148.815 73.259,148.815 73.162 C 148.815 73.065,148.905 72.986,149.014 72.986 C 149.123 72.986,149.410 72.773,149.652 72.512 C 149.893 72.251,150.187 72.038,150.304 72.038 C 150.617 72.038,156.967 65.611,156.967 65.294 C 156.967 65.145,157.052 65.024,157.156 65.024 C 157.261 65.024,157.346 64.896,157.346 64.739 C 157.346 64.583,157.474 64.455,157.630 64.455 C 157.787 64.455,157.915 64.327,157.915 64.171 C 157.915 64.014,157.998 63.886,158.101 63.886 C 158.203 63.886,158.340 63.673,158.406 63.412 C 158.471 63.152,158.601 62.938,158.694 62.938 C 158.786 62.938,158.863 62.768,158.863 62.559 C 158.863 62.351,158.934 62.180,159.022 62.180 C 159.109 62.180,159.281 61.988,159.403 61.754 C 159.525 61.519,159.788 61.071,159.988 60.758 C 160.188 60.445,160.358 60.051,160.365 59.881 C 160.373 59.711,160.507 59.466,160.664 59.336 C 160.820 59.207,160.948 58.940,160.948 58.745 C 160.948 58.549,161.023 58.389,161.114 58.389 C 161.205 58.389,161.332 58.127,161.396 57.807 C 161.460 57.484,161.597 57.279,161.704 57.345 C 161.817 57.414,161.896 57.231,161.896 56.899 C 161.896 56.588,162.019 56.093,162.170 55.797 C 162.546 55.064,162.700 54.603,162.794 53.934 C 162.838 53.621,162.995 53.230,163.143 53.066 C 163.293 52.899,163.412 52.382,163.412 51.901 C 163.412 51.333,163.504 51.001,163.678 50.934 C 163.839 50.872,163.987 50.433,164.052 49.823 C 164.111 49.269,164.240 48.047,164.338 47.109 C 164.566 44.930,164.580 33.881,164.357 32.133 C 163.982 29.203,163.786 28.150,163.604 28.089 C 163.498 28.054,163.412 27.744,163.412 27.401 C 163.412 27.057,163.284 26.670,163.128 26.540 C 162.972 26.410,162.844 26.064,162.844 25.770 C 162.844 25.476,162.769 25.190,162.679 25.134 C 162.588 25.078,162.459 24.689,162.392 24.270 C 162.325 23.850,162.186 23.507,162.083 23.507 C 161.980 23.507,161.896 23.330,161.896 23.114 C 161.896 22.898,161.768 22.594,161.611 22.437 C 161.455 22.281,161.327 21.994,161.327 21.799 C 161.327 21.604,161.242 21.391,161.137 21.327 C 161.033 21.263,160.948 21.053,160.948 20.862 C 160.948 20.671,160.820 20.465,160.664 20.405 C 160.507 20.345,160.379 20.123,160.379 19.911 C 160.379 19.699,160.294 19.526,160.190 19.526 C 160.085 19.526,160.000 19.404,160.000 19.255 C 160.000 19.106,159.883 18.868,159.741 18.725 C 159.598 18.582,159.422 18.278,159.349 18.048 C 159.276 17.818,159.137 17.630,159.039 17.630 C 158.942 17.630,158.863 17.497,158.863 17.335 C 158.863 17.172,158.777 17.092,158.673 17.156 C 158.569 17.221,158.483 17.099,158.483 16.885 C 158.483 16.671,158.227 16.268,157.915 15.989 C 157.602 15.710,157.346 15.407,157.346 15.316 C 157.346 15.158,156.543 14.211,155.403 13.025 C 155.116 12.727,154.882 12.404,154.882 12.308 C 154.882 12.211,154.799 12.133,154.698 12.133 C 154.598 12.133,154.270 11.898,153.971 11.611 C 152.684 10.381,151.854 9.668,151.706 9.668 C 151.618 9.668,151.337 9.416,151.081 9.108 C 150.825 8.799,150.509 8.543,150.379 8.539 C 150.249 8.534,150.142 8.445,150.142 8.341 C 150.142 8.237,150.008 8.152,149.844 8.152 C 149.680 8.152,149.427 8.045,149.282 7.915 C 148.706 7.398,148.474 7.237,147.612 6.756 C 147.120 6.481,146.589 6.256,146.433 6.256 C 146.277 6.256,146.103 6.136,146.047 5.989 C 145.990 5.842,145.737 5.669,145.484 5.606 C 145.231 5.542,145.024 5.407,145.024 5.304 C 145.024 5.202,144.810 5.118,144.550 5.118 C 144.289 5.118,144.076 5.033,144.076 4.929 C 144.076 4.825,143.820 4.739,143.507 4.739 C 143.128 4.739,142.938 4.645,142.938 4.455 C 142.938 4.280,142.761 4.171,142.478 4.171 C 142.225 4.171,141.890 4.043,141.733 3.886 C 141.577 3.730,141.230 3.602,140.961 3.602 C 140.693 3.602,140.474 3.517,140.474 3.412 C 140.474 3.308,140.133 3.223,139.716 3.223 C 139.168 3.223,138.957 3.144,138.957 2.938 C 138.957 2.733,138.746 2.654,138.193 2.654 C 137.689 2.654,137.392 2.557,137.320 2.370 C 137.245 2.176,136.942 2.085,136.367 2.085 C 135.852 2.085,135.568 2.011,135.640 1.896 C 135.712 1.779,135.385 1.706,134.784 1.706 C 134.173 1.706,133.706 1.601,133.527 1.422 C 133.362 1.256,132.899 1.137,132.419 1.137 C 131.464 1.137,130.952 0.981,131.104 0.736 C 131.162 0.641,130.970 0.581,130.676 0.601 C 129.580 0.677,128.133 0.563,128.228 0.408 C 128.474 0.011,103.817 -0.145,97.536 0.214 M120.853 14.458 C 121.364 14.622,122.438 14.756,125.937 15.094 C 126.631 15.161,127.077 15.300,127.142 15.468 C 127.206 15.634,127.524 15.735,127.988 15.735 C 128.475 15.735,128.770 15.833,128.841 16.019 C 128.912 16.203,129.206 16.303,129.677 16.303 C 130.077 16.303,130.457 16.389,130.521 16.493 C 130.586 16.597,130.880 16.682,131.176 16.682 C 131.478 16.682,131.761 16.807,131.822 16.967 C 131.882 17.123,132.138 17.251,132.391 17.251 C 132.644 17.251,132.900 17.379,132.960 17.536 C 133.020 17.692,133.237 17.820,133.443 17.820 C 133.648 17.820,133.869 17.905,133.934 18.009 C 133.998 18.114,134.259 18.199,134.514 18.199 C 134.799 18.199,134.976 18.308,134.976 18.483 C 134.976 18.641,135.145 18.768,135.355 18.768 C 135.564 18.768,135.735 18.834,135.735 18.914 C 135.735 18.995,136.055 19.229,136.445 19.434 C 136.836 19.639,137.225 19.914,137.308 20.046 C 137.391 20.177,137.540 20.284,137.638 20.284 C 137.854 20.284,138.551 20.856,139.661 21.943 C 140.114 22.386,140.572 22.749,140.680 22.749 C 140.787 22.749,140.824 22.831,140.762 22.932 C 140.700 23.033,140.823 23.224,141.035 23.357 C 141.248 23.490,141.422 23.700,141.422 23.823 C 141.422 23.947,141.635 24.216,141.896 24.421 C 142.156 24.626,142.370 24.892,142.370 25.012 C 142.370 25.131,142.550 25.417,142.769 25.648 C 142.989 25.878,143.253 26.301,143.357 26.588 C 143.460 26.874,143.621 27.109,143.715 27.109 C 143.809 27.109,143.886 27.232,143.886 27.383 C 143.886 27.534,144.100 28.059,144.360 28.549 C 144.621 29.039,144.834 29.592,144.834 29.778 C 144.834 29.963,144.962 30.243,145.118 30.399 C 145.275 30.556,145.403 30.941,145.403 31.255 C 145.403 31.569,145.488 31.879,145.592 31.943 C 145.697 32.008,145.782 32.401,145.782 32.817 C 145.782 33.233,145.905 33.811,146.056 34.102 C 146.214 34.409,146.344 35.263,146.365 36.131 C 146.384 36.956,146.517 37.861,146.660 38.142 C 146.935 38.686,147.027 41.535,146.777 41.785 C 146.699 41.863,146.624 42.006,146.611 42.101 C 146.598 42.197,146.566 42.318,146.540 42.370 C 146.426 42.599,146.397 42.928,146.374 44.252 C 146.360 45.136,146.258 45.753,146.101 45.911 C 145.962 46.050,145.830 46.667,145.806 47.299 C 145.781 47.924,145.680 48.464,145.582 48.499 C 145.483 48.534,145.403 48.857,145.403 49.216 C 145.403 49.622,145.295 49.911,145.118 49.979 C 144.954 50.042,144.834 50.325,144.834 50.650 C 144.834 50.959,144.706 51.340,144.550 51.496 C 144.393 51.653,144.265 51.945,144.265 52.146 C 144.265 52.347,144.180 52.512,144.076 52.512 C 143.972 52.512,143.886 52.716,143.886 52.965 C 143.886 53.215,143.758 53.468,143.602 53.528 C 143.445 53.588,143.318 53.800,143.318 53.999 C 143.318 54.198,143.190 54.467,143.033 54.597 C 142.877 54.727,142.749 54.951,142.749 55.094 C 142.749 55.238,142.664 55.355,142.559 55.355 C 142.455 55.355,142.391 55.419,142.416 55.498 C 142.442 55.576,142.229 55.946,141.942 56.321 C 141.656 56.696,141.422 57.055,141.422 57.118 C 141.422 57.182,140.953 57.722,140.379 58.319 C 139.806 58.916,139.336 59.474,139.336 59.560 C 139.336 59.646,139.241 59.716,139.125 59.716 C 139.008 59.716,138.592 60.057,138.199 60.474 C 137.806 60.891,137.393 61.232,137.280 61.232 C 137.167 61.232,136.980 61.409,136.864 61.626 C 136.743 61.852,136.538 61.976,136.384 61.916 C 136.226 61.856,136.114 61.928,136.114 62.091 C 136.114 62.246,135.940 62.370,135.723 62.370 C 135.509 62.370,135.386 62.455,135.450 62.559 C 135.515 62.664,135.401 62.749,135.197 62.749 C 134.994 62.749,134.778 62.877,134.718 63.033 C 134.658 63.190,134.445 63.318,134.244 63.318 C 134.044 63.318,133.830 63.445,133.770 63.602 C 133.710 63.758,133.488 63.886,133.276 63.886 C 133.064 63.886,132.891 63.972,132.891 64.076 C 132.891 64.180,132.726 64.265,132.525 64.265 C 132.324 64.265,132.032 64.393,131.875 64.550 C 131.719 64.706,131.381 64.834,131.124 64.834 C 130.867 64.834,130.608 64.962,130.548 65.118 C 130.488 65.275,130.228 65.403,129.970 65.403 C 129.712 65.403,129.448 65.488,129.384 65.592 C 129.319 65.697,129.026 65.782,128.732 65.782 C 128.439 65.782,128.092 65.910,127.962 66.066 C 127.832 66.223,127.432 66.351,127.072 66.351 C 126.713 66.351,126.282 66.487,126.115 66.654 C 125.896 66.873,125.616 66.926,125.108 66.845 C 124.607 66.765,124.337 66.814,124.170 67.016 C 124.008 67.211,123.571 67.299,122.764 67.299 C 122.119 67.299,121.505 67.386,121.398 67.493 C 121.291 67.600,120.080 67.741,118.706 67.806 C 117.333 67.872,116.209 68.002,116.209 68.095 C 116.209 68.448,103.607 67.854,103.237 67.483 C 103.135 67.382,102.521 67.299,101.871 67.299 C 101.040 67.299,100.601 67.209,100.386 66.994 C 100.217 66.825,99.915 66.733,99.708 66.787 C 99.338 66.883,99.336 66.662,99.383 41.072 L 99.431 15.261 100.758 15.108 C 101.488 15.024,103.194 14.891,104.550 14.813 C 105.905 14.734,106.929 14.643,106.825 14.609 C 106.720 14.575,106.934 14.491,107.299 14.421 C 108.347 14.222,120.218 14.255,120.853 14.458 " stroke="none" fill="#04b3fc" fill-rule="evenodd"></path><path id="path1" d="M200.569 10.613 C 197.699 11.154,195.177 11.892,194.895 12.271 C 194.836 12.351,194.488 12.570,194.123 12.757 C 192.676 13.497,192.214 13.865,190.343 15.766 C 188.796 17.339,187.787 18.623,187.278 19.668 C 187.062 20.111,186.824 20.474,186.750 20.474 C 186.675 20.474,186.320 21.092,185.961 21.848 C 185.602 22.604,185.254 23.265,185.187 23.318 C 185.121 23.370,184.784 24.137,184.438 25.024 C 184.092 25.910,183.746 26.680,183.669 26.734 C 183.592 26.789,183.262 27.642,182.937 28.630 C 182.612 29.618,182.229 30.682,182.088 30.995 C 181.946 31.308,181.609 32.460,181.340 33.555 C 181.070 34.649,180.776 35.675,180.687 35.834 C 180.597 35.993,180.294 37.315,180.013 38.773 C 179.732 40.230,179.415 41.806,179.310 42.275 C 178.877 44.200,178.405 47.284,178.105 50.142 C 177.930 51.810,177.739 53.303,177.680 53.460 C 177.499 53.943,177.469 54.205,177.172 58.009 C 176.143 71.171,176.140 91.018,177.163 110.792 C 177.314 113.703,177.417 116.094,177.392 116.103 C 176.778 116.342,172.340 118.651,172.151 118.831 C 172.004 118.970,171.699 119.154,171.472 119.241 C 169.741 119.899,165.331 123.604,164.597 125.018 C 163.391 127.341,164.901 131.656,167.114 132.212 C 167.422 132.289,167.736 132.452,167.811 132.574 C 168.367 133.475,173.140 132.238,173.585 131.079 C 173.641 130.934,174.126 130.546,174.663 130.217 C 175.200 129.888,175.682 129.555,175.735 129.478 C 175.880 129.263,178.226 128.115,178.323 128.212 C 178.370 128.259,178.537 129.950,178.695 131.969 C 178.852 133.988,179.055 135.810,179.146 136.019 C 179.236 136.227,179.405 137.507,179.521 138.863 C 179.882 143.087,180.487 148.324,180.660 148.720 C 180.750 148.929,180.876 149.569,180.938 150.142 C 181.254 153.052,182.057 158.207,182.203 158.262 C 182.295 158.297,182.370 158.510,182.370 158.736 C 182.370 159.400,183.512 165.558,183.675 165.774 C 183.757 165.883,183.930 166.483,184.061 167.109 C 184.521 169.318,185.070 171.472,185.219 171.659 C 185.302 171.763,185.380 171.911,185.392 171.989 C 185.488 172.618,186.801 176.303,186.930 176.303 C 187.006 176.303,187.197 176.623,187.354 177.014 C 188.827 180.667,195.168 180.590,196.908 176.899 C 197.646 175.334,197.165 170.699,196.197 170.047 C 196.057 169.953,195.026 165.911,194.770 164.455 C 194.697 164.038,194.577 163.654,194.504 163.602 C 194.431 163.550,194.097 161.844,193.761 159.810 C 193.425 157.777,193.074 155.943,192.980 155.735 C 192.887 155.526,192.544 153.265,192.219 150.711 C 191.893 148.156,191.553 145.896,191.462 145.687 C 191.315 145.351,190.523 138.435,190.225 134.882 C 190.163 134.152,190.040 133.384,189.949 133.175 C 189.859 132.967,189.651 131.090,189.486 129.005 C 189.321 126.919,189.143 124.870,189.090 124.449 C 188.972 123.510,189.294 123.328,192.607 122.458 C 193.806 122.143,194.936 121.802,195.119 121.699 C 195.302 121.596,196.667 121.253,198.152 120.937 C 199.638 120.620,201.024 120.286,201.232 120.195 C 202.078 119.823,205.958 119.293,209.606 119.052 C 213.255 118.810,214.847 118.143,215.712 116.493 C 215.985 115.972,216.293 115.485,216.396 115.411 C 216.870 115.073,216.749 112.201,216.218 111.187 C 214.893 108.654,213.829 108.143,209.953 108.176 C 206.179 108.209,199.474 108.904,198.389 109.374 C 198.180 109.464,196.773 109.768,195.261 110.049 C 193.749 110.330,192.256 110.671,191.943 110.806 C 191.249 111.107,188.222 111.887,188.124 111.790 C 188.013 111.678,187.699 105.418,187.488 99.085 C 187.235 91.471,187.231 73.253,187.482 68.057 C 187.755 62.423,188.235 56.095,188.425 55.640 C 188.511 55.431,188.774 53.527,189.009 51.407 C 189.409 47.797,189.647 46.236,190.114 44.171 C 190.221 43.701,190.537 42.125,190.819 40.668 C 191.100 39.211,191.401 37.889,191.487 37.730 C 191.574 37.571,191.914 36.460,192.242 35.261 C 192.570 34.062,192.903 32.995,192.982 32.891 C 193.060 32.787,193.313 32.190,193.544 31.564 C 194.095 30.067,195.990 26.163,196.330 25.823 C 196.476 25.677,196.734 25.291,196.902 24.966 C 197.397 24.009,198.891 22.569,199.810 22.164 C 200.280 21.957,200.812 21.705,200.993 21.605 C 202.271 20.894,204.792 22.057,206.066 23.946 C 206.430 24.487,206.824 25.030,206.941 25.154 C 207.413 25.655,208.768 29.499,209.020 31.055 C 209.526 34.172,209.115 43.778,208.456 44.215 C 208.341 44.292,208.296 44.356,208.356 44.357 C 208.572 44.363,207.258 50.038,206.958 50.400 C 206.832 50.551,206.757 50.683,206.789 50.693 C 206.822 50.703,206.804 50.839,206.748 50.995 C 206.692 51.152,206.439 51.927,206.185 52.719 C 205.559 54.666,202.880 60.394,202.202 61.232 C 202.076 61.389,201.730 61.976,201.434 62.538 C 201.138 63.099,200.737 63.718,200.543 63.912 C 200.349 64.106,200.190 64.360,200.190 64.475 C 200.190 64.591,199.678 65.356,199.052 66.176 C 198.427 66.996,197.915 67.758,197.915 67.868 C 197.915 67.978,197.794 68.115,197.646 68.172 C 197.498 68.229,197.168 68.588,196.912 68.972 C 196.656 69.355,196.158 69.977,195.806 70.353 C 195.454 70.730,194.739 71.528,194.218 72.127 C 193.697 72.726,192.819 73.655,192.267 74.191 C 190.701 75.713,190.249 76.721,190.257 78.673 C 190.264 80.223,190.928 82.273,191.425 82.276 C 191.501 82.276,191.841 82.537,192.180 82.854 C 193.708 84.286,197.161 84.441,198.653 83.144 C 199.391 82.503,201.546 80.326,202.439 79.321 C 202.895 78.808,203.471 78.161,203.721 77.882 C 203.970 77.604,204.727 76.666,205.402 75.797 C 206.077 74.929,206.865 73.934,207.154 73.587 C 207.442 73.240,207.797 72.728,207.942 72.449 C 208.087 72.171,208.386 71.758,208.605 71.532 C 208.825 71.305,209.217 70.708,209.476 70.205 C 209.735 69.701,210.050 69.204,210.177 69.100 C 210.303 68.995,210.627 68.465,210.897 67.922 C 211.166 67.379,211.464 66.886,211.559 66.828 C 211.654 66.769,212.056 66.073,212.453 65.281 C 212.850 64.489,213.403 63.403,213.682 62.868 C 213.960 62.333,214.244 61.661,214.313 61.374 C 214.382 61.088,214.507 60.853,214.591 60.853 C 214.747 60.853,216.114 57.309,216.114 56.904 C 216.114 56.782,216.189 56.682,216.280 56.682 C 216.372 56.682,216.535 56.363,216.643 55.972 C 217.315 53.532,217.677 52.349,217.903 51.848 C 218.045 51.536,218.391 50.043,218.671 48.531 C 218.952 47.019,219.254 45.611,219.343 45.403 C 220.285 43.186,220.287 28.384,219.346 27.208 C 219.261 27.101,219.130 26.716,219.057 26.351 C 218.819 25.177,218.025 22.522,217.845 22.300 C 217.749 22.182,217.440 21.536,217.159 20.865 C 216.878 20.194,216.459 19.384,216.229 19.064 C 215.999 18.745,215.697 18.255,215.559 17.977 C 215.330 17.517,214.351 16.228,213.495 15.261 C 212.574 14.220,210.310 12.512,209.851 12.512 C 209.751 12.512,209.668 12.436,209.668 12.344 C 209.668 11.465,202.889 10.175,200.569 10.613 M110.181 14.358 C 110.881 14.395,112.075 14.395,112.835 14.359 C 113.596 14.323,113.024 14.293,111.564 14.293 C 110.104 14.293,109.482 14.322,110.181 14.358 M117.014 14.357 C 117.509 14.396,118.320 14.396,118.815 14.357 C 119.310 14.318,118.905 14.286,117.915 14.286 C 116.924 14.286,116.519 14.318,117.014 14.357 M253.128 62.878 C 252.685 62.923,252.322 63.041,252.322 63.139 C 252.322 63.237,252.088 63.322,251.801 63.327 C 250.435 63.350,243.930 65.537,243.013 66.281 C 242.868 66.399,242.280 66.730,241.706 67.017 C 241.133 67.303,240.621 67.603,240.569 67.682 C 240.517 67.761,239.941 68.138,239.289 68.519 C 238.637 68.900,238.104 69.294,238.104 69.393 C 238.104 69.492,238.010 69.573,237.895 69.573 C 237.076 69.573,231.571 74.904,229.083 78.104 C 228.002 79.495,225.782 82.924,225.782 83.202 C 225.782 83.303,225.664 83.503,225.520 83.648 C 225.185 83.982,224.573 85.196,224.276 86.114 C 224.150 86.505,223.980 86.825,223.899 86.825 C 223.817 86.825,223.461 87.699,223.108 88.768 C 222.754 89.836,222.408 90.754,222.338 90.807 C 222.145 90.954,221.485 93.701,221.108 95.924 C 220.753 98.021,220.549 104.455,220.837 104.455 C 220.923 104.455,221.053 104.975,221.124 105.611 C 221.265 106.854,222.110 109.976,222.349 110.138 C 222.430 110.193,222.778 110.855,223.124 111.611 C 223.470 112.367,223.810 112.986,223.879 112.986 C 223.949 112.986,224.186 113.306,224.406 113.697 C 224.782 114.366,226.369 116.075,227.639 117.178 C 228.612 118.024,231.390 119.427,232.741 119.755 C 233.449 119.928,234.089 120.160,234.164 120.271 C 234.356 120.559,243.260 120.550,243.620 120.261 C 243.767 120.144,244.313 119.988,244.834 119.914 C 246.119 119.733,249.737 118.861,249.857 118.703 C 249.909 118.634,250.464 118.411,251.090 118.208 C 251.716 118.005,253.188 117.387,254.363 116.834 C 255.537 116.282,256.582 115.829,256.685 115.829 C 256.788 115.829,256.872 115.762,256.872 115.679 C 256.872 115.596,257.427 115.243,258.104 114.896 C 258.782 114.548,259.336 114.190,259.336 114.099 C 259.336 114.008,259.411 113.934,259.503 113.934 C 259.743 113.934,261.700 112.734,262.079 112.355 C 262.255 112.179,262.577 111.940,262.795 111.823 C 263.158 111.629,263.719 111.196,266.161 109.220 C 266.629 108.841,267.406 108.168,267.886 107.725 C 269.007 106.691,268.875 106.570,269.486 109.194 C 269.778 110.445,270.078 111.469,270.154 111.469 C 270.229 111.469,270.347 111.704,270.415 111.991 C 270.599 112.766,271.510 115.151,271.664 115.261 C 271.737 115.313,272.070 115.884,272.404 116.529 C 272.739 117.174,273.074 117.729,273.149 117.761 C 273.224 117.793,273.523 118.134,273.812 118.519 C 274.287 119.148,274.693 119.427,276.456 120.333 C 277.083 120.656,280.120 120.602,280.339 120.265 C 280.413 120.150,280.800 119.903,281.199 119.715 C 281.598 119.528,282.067 119.154,282.242 118.885 C 282.416 118.615,282.703 118.250,282.879 118.072 C 283.914 117.026,283.783 112.890,282.681 111.835 C 282.510 111.671,282.114 110.989,281.801 110.318 C 281.488 109.648,281.169 109.071,281.091 109.037 C 281.013 109.002,280.689 108.106,280.370 107.046 C 280.052 105.986,279.719 104.984,279.631 104.820 C 279.192 104.006,278.483 97.755,278.483 94.693 C 278.483 93.445,278.225 92.181,277.921 91.943 C 277.854 91.891,277.600 91.519,277.355 91.117 C 276.325 89.422,273.009 88.317,271.280 89.091 C 270.135 89.604,269.259 90.280,268.404 91.311 C 266.874 93.156,266.313 93.791,264.929 95.241 C 264.199 96.006,263.337 96.921,263.013 97.273 C 262.262 98.090,259.661 100.444,259.100 100.814 C 258.865 100.969,258.460 101.299,258.199 101.547 C 257.491 102.220,254.912 104.068,254.674 104.072 C 254.560 104.074,254.319 104.239,254.139 104.437 C 253.959 104.636,253.242 105.084,252.546 105.433 C 251.849 105.781,251.235 106.125,251.181 106.197 C 251.034 106.391,248.537 107.488,248.242 107.488 C 248.103 107.488,247.872 107.605,247.729 107.748 C 247.320 108.157,243.483 109.209,240.948 109.607 C 239.514 109.832,236.038 109.717,235.858 109.439 C 235.790 109.334,235.351 109.080,234.882 108.874 C 233.433 108.238,231.848 105.713,231.848 104.042 C 231.848 103.748,231.763 103.507,231.659 103.507 C 231.423 103.507,231.399 99.023,231.634 98.878 C 231.724 98.822,231.854 98.369,231.921 97.872 C 232.122 96.389,232.751 94.101,233.250 93.035 C 233.507 92.487,233.937 91.569,234.207 90.995 C 234.920 89.478,236.122 87.375,236.360 87.227 C 236.473 87.158,236.690 86.860,236.843 86.565 C 237.152 85.970,237.744 85.207,239.126 83.622 C 240.838 81.660,241.071 81.426,242.544 80.190 C 243.352 79.512,244.240 78.760,244.518 78.519 C 244.796 78.278,245.344 77.914,245.735 77.710 C 246.126 77.505,246.445 77.267,246.445 77.179 C 246.445 77.091,247.122 76.710,247.949 76.332 C 248.777 75.954,249.506 75.560,249.570 75.457 C 249.698 75.248,253.161 74.123,253.673 74.123 C 253.851 74.123,254.032 74.017,254.076 73.886 C 254.179 73.577,259.281 73.546,259.485 73.853 C 259.560 73.965,260.038 74.221,260.548 74.422 C 261.643 74.853,263.360 76.343,263.695 77.153 C 263.826 77.468,263.996 77.725,264.073 77.725 C 264.151 77.725,264.398 78.227,264.621 78.840 C 264.990 79.852,265.714 80.712,267.017 81.684 C 269.355 83.429,274.692 81.163,274.692 78.426 C 274.692 78.262,274.777 78.074,274.882 78.009 C 275.093 77.879,275.144 76.155,274.943 75.954 C 274.872 75.883,274.626 75.230,274.395 74.502 C 273.975 73.178,272.457 70.434,271.625 69.497 C 270.547 68.281,269.543 67.296,268.875 66.796 C 268.477 66.499,268.066 66.158,267.962 66.038 C 267.791 65.841,266.395 65.055,264.778 64.246 C 264.444 64.079,263.573 63.787,262.844 63.598 C 262.114 63.409,261.397 63.162,261.250 63.049 C 260.983 62.842,254.761 62.711,253.128 62.878 M311.611 62.877 C 311.116 62.922,310.711 63.040,310.711 63.138 C 310.711 63.237,310.507 63.318,310.258 63.318 C 309.531 63.318,306.136 64.247,305.317 64.671 C 304.904 64.884,304.094 65.232,303.516 65.444 C 302.938 65.656,302.193 66.032,301.861 66.280 C 301.529 66.527,301.179 66.730,301.084 66.730 C 300.988 66.730,300.256 67.199,299.456 67.773 C 298.657 68.346,297.935 68.815,297.851 68.815 C 297.767 68.815,297.514 69.007,297.287 69.242 C 297.061 69.476,296.440 70.052,295.907 70.521 C 294.773 71.520,294.243 72.052,293.081 73.358 C 291.710 74.898,291.653 74.968,290.986 75.942 C 290.636 76.454,290.236 76.988,290.096 77.130 C 289.957 77.272,289.622 77.826,289.352 78.362 C 289.081 78.898,288.798 79.379,288.722 79.431 C 288.437 79.627,286.490 83.936,286.152 85.118 C 285.959 85.796,285.727 86.402,285.637 86.464 C 284.795 87.049,284.043 96.432,284.537 100.196 C 284.782 102.063,285.422 104.850,285.644 105.014 C 285.722 105.072,285.947 105.588,286.144 106.161 C 286.341 106.735,286.665 107.502,286.864 107.867 C 287.700 109.402,288.264 110.347,288.531 110.665 C 288.687 110.851,289.068 111.342,289.376 111.757 C 290.457 113.211,293.222 115.728,294.692 116.594 C 295.109 116.840,295.493 117.093,295.545 117.156 C 295.727 117.376,297.626 118.294,297.898 118.294 C 298.049 118.294,298.286 118.408,298.426 118.548 C 298.754 118.876,300.793 119.538,302.370 119.828 C 303.047 119.952,303.722 120.149,303.868 120.264 C 304.244 120.560,315.100 120.556,315.469 120.260 C 315.615 120.143,316.229 119.987,316.834 119.914 C 318.424 119.721,322.327 118.891,322.452 118.719 C 322.511 118.638,323.242 118.377,324.076 118.140 C 324.910 117.902,326.019 117.502,326.540 117.250 C 327.062 116.998,328.038 116.575,328.710 116.309 C 329.383 116.043,329.980 115.762,330.037 115.685 C 330.095 115.608,330.690 115.289,331.359 114.976 C 332.028 114.664,332.668 114.322,332.781 114.217 C 332.893 114.112,333.540 113.741,334.218 113.392 C 334.896 113.044,335.621 112.607,335.829 112.421 C 336.038 112.235,336.507 111.933,336.872 111.749 C 337.775 111.297,339.336 109.975,339.336 109.664 C 339.336 109.525,339.470 109.277,339.634 109.113 C 340.462 108.285,340.519 104.944,339.720 104.037 C 339.601 103.902,339.339 103.513,339.137 103.174 C 338.936 102.834,338.493 102.391,338.153 102.190 C 337.814 101.988,337.445 101.745,337.335 101.649 C 336.255 100.710,333.404 100.875,331.659 101.976 C 330.986 102.401,330.379 102.749,330.310 102.749 C 330.241 102.749,330.089 102.870,329.974 103.018 C 329.858 103.167,329.166 103.604,328.436 103.990 C 327.706 104.376,327.013 104.768,326.896 104.861 C 326.477 105.193,322.919 106.956,321.896 107.339 C 321.322 107.553,320.750 107.810,320.624 107.909 C 320.307 108.160,316.060 109.187,315.324 109.191 C 314.994 109.193,314.688 109.301,314.645 109.431 C 314.584 109.612,313.475 109.668,309.953 109.668 C 306.431 109.668,305.321 109.612,305.261 109.431 C 305.217 109.301,304.997 109.191,304.771 109.186 C 304.545 109.182,303.763 108.964,303.033 108.702 C 302.303 108.440,301.557 108.178,301.374 108.119 C 301.192 108.061,301.043 107.949,301.043 107.870 C 301.043 107.792,300.680 107.490,300.237 107.199 C 298.895 106.317,296.682 103.684,296.682 102.969 C 296.682 102.848,296.601 102.749,296.501 102.749 C 296.276 102.749,295.641 100.630,295.340 98.875 C 294.880 96.192,295.592 89.736,296.466 88.652 C 296.562 88.533,296.910 87.799,297.240 87.020 C 297.569 86.241,297.903 85.558,297.981 85.503 C 298.060 85.448,298.391 84.924,298.717 84.339 C 299.043 83.754,299.572 82.988,299.892 82.638 C 300.212 82.287,300.474 81.935,300.474 81.854 C 300.474 81.609,303.750 78.425,304.603 77.842 C 305.043 77.541,305.403 77.229,305.403 77.149 C 305.403 77.069,306.021 76.685,306.777 76.295 C 307.533 75.906,308.178 75.520,308.210 75.438 C 308.242 75.355,309.138 75.017,310.201 74.686 C 311.263 74.355,312.338 73.986,312.588 73.867 C 313.178 73.585,319.766 73.565,319.960 73.845 C 320.034 73.952,320.733 74.293,321.512 74.603 C 325.586 76.221,329.262 74.433,329.772 70.585 C 330.225 67.175,327.808 64.597,323.223 63.599 C 322.441 63.429,321.630 63.195,321.422 63.079 C 321.039 62.867,313.430 62.710,311.611 62.877 M363.128 62.877 C 362.815 62.927,362.478 63.046,362.379 63.143 C 362.280 63.239,362.024 63.319,361.810 63.320 C 361.112 63.326,358.410 64.073,357.441 64.529 C 356.919 64.775,356.030 65.178,355.464 65.426 C 354.899 65.674,354.344 65.962,354.232 66.066 C 354.120 66.171,353.575 66.533,353.020 66.872 C 350.087 68.665,346.297 72.724,344.833 75.640 C 344.597 76.109,344.348 76.536,344.280 76.588 C 344.212 76.640,343.916 77.237,343.623 77.915 C 343.330 78.592,342.933 79.488,342.741 79.905 C 342.338 80.780,341.702 83.141,341.507 84.482 C 341.434 84.989,341.278 85.523,341.161 85.669 C 340.861 86.044,340.866 95.696,341.166 96.322 C 341.286 96.572,341.525 97.545,341.696 98.483 C 342.048 100.407,342.562 102.217,342.807 102.391 C 342.897 102.455,342.974 102.583,342.977 102.675 C 342.993 103.080,344.079 105.755,344.341 106.033 C 344.456 106.156,344.791 106.725,345.086 107.299 C 346.302 109.666,351.237 115.261,352.108 115.261 C 352.268 115.261,352.479 115.405,352.578 115.581 C 352.787 115.956,354.384 116.901,356.398 117.842 C 357.180 118.207,358.161 118.665,358.578 118.860 C 358.995 119.054,360.232 119.401,361.327 119.631 C 362.422 119.860,363.523 120.144,363.774 120.261 C 364.407 120.556,375.382 120.558,375.753 120.262 C 375.899 120.146,376.488 119.992,377.062 119.921 C 378.709 119.716,381.838 119.051,382.463 118.772 C 382.777 118.632,383.801 118.286,384.739 118.002 C 385.678 117.718,386.626 117.374,386.847 117.238 C 387.068 117.102,387.964 116.717,388.838 116.381 C 389.712 116.046,390.469 115.716,390.521 115.649 C 390.573 115.581,391.080 115.328,391.647 115.088 C 394.472 113.890,395.789 110.748,394.693 107.819 C 393.799 105.429,390.346 103.781,388.180 104.712 C 387.852 104.853,387.114 105.169,386.540 105.415 C 385.967 105.660,385.284 106.002,385.024 106.173 C 384.763 106.345,383.782 106.770,382.844 107.118 C 381.905 107.465,380.967 107.851,380.758 107.975 C 380.422 108.175,379.228 108.484,376.019 109.200 C 375.498 109.317,374.474 109.498,373.744 109.603 C 372.069 109.844,365.335 109.729,365.154 109.456 C 365.082 109.347,364.488 109.146,363.833 109.010 C 362.774 108.788,362.061 108.436,362.672 108.436 C 362.798 108.436,363.337 108.231,363.868 107.980 C 364.399 107.729,365.343 107.299,365.965 107.024 C 366.587 106.750,367.142 106.464,367.198 106.390 C 367.254 106.316,367.854 105.965,368.532 105.610 C 369.209 105.255,369.806 104.905,369.858 104.833 C 369.910 104.760,370.336 104.463,370.806 104.173 C 371.275 103.882,371.787 103.531,371.943 103.392 C 372.100 103.253,372.825 102.638,373.555 102.026 C 375.927 100.035,378.028 97.742,379.952 95.043 C 380.952 93.641,382.749 90.120,382.749 89.563 C 382.749 89.412,382.831 89.289,382.930 89.289 C 383.104 89.289,383.602 87.761,384.058 85.831 C 384.174 85.337,384.324 84.289,384.391 83.503 C 384.457 82.716,384.584 82.028,384.673 81.973 C 384.884 81.842,384.883 78.863,384.672 78.863 C 384.582 78.863,384.454 78.287,384.386 77.583 C 384.107 74.701,382.933 71.679,381.315 69.683 C 380.166 68.265,378.667 66.730,378.431 66.730 C 378.297 66.730,378.139 66.604,378.080 66.451 C 377.811 65.748,373.811 63.742,372.038 63.420 C 371.622 63.345,371.219 63.184,371.145 63.063 C 371.007 62.840,364.335 62.685,363.128 62.877 M369.447 73.854 C 369.517 73.950,370.071 74.277,370.679 74.581 C 371.960 75.222,372.907 76.334,373.268 77.622 C 373.401 78.096,373.583 78.483,373.674 78.483 C 373.896 78.483,373.886 82.003,373.663 82.420 C 373.566 82.601,373.350 83.218,373.183 83.791 C 372.845 84.947,372.319 86.248,372.072 86.540 C 371.984 86.645,371.684 87.130,371.406 87.618 C 370.007 90.077,367.118 93.137,364.580 94.850 C 364.101 95.173,363.557 95.590,363.371 95.776 C 363.185 95.962,362.955 96.114,362.860 96.114 C 362.765 96.114,362.104 96.448,361.391 96.856 C 360.678 97.264,359.498 97.797,358.768 98.041 C 358.038 98.284,357.398 98.537,357.346 98.603 C 357.237 98.741,355.626 99.069,354.173 99.249 C 353.021 99.391,353.063 99.447,352.518 97.062 C 352.339 96.280,352.094 95.435,351.973 95.185 C 351.603 94.418,351.680 87.687,352.070 86.635 C 352.244 86.166,352.615 85.033,352.894 84.118 C 353.173 83.203,353.500 82.349,353.620 82.219 C 353.819 82.005,354.118 81.508,354.760 80.324 C 355.883 78.254,359.415 75.474,362.066 74.575 C 362.858 74.305,363.678 74.012,363.886 73.923 C 364.769 73.544,369.184 73.489,369.447 73.854 M389.289 131.915 C 386.995 132.199,384.991 132.488,384.834 132.557 C 384.678 132.625,383.313 132.812,381.801 132.972 C 375.862 133.600,373.725 133.863,373.270 134.024 C 373.009 134.116,372.327 134.239,371.754 134.298 C 368.672 134.611,362.331 135.397,362.085 135.496 C 361.929 135.559,359.284 135.937,356.209 136.336 C 353.133 136.735,350.403 137.102,350.142 137.151 C 349.224 137.325,339.806 138.583,339.431 138.582 C 339.223 138.582,338.882 138.658,338.673 138.752 C 338.464 138.846,336.204 139.190,333.649 139.516 C 328.772 140.139,328.607 140.164,328.152 140.333 C 327.995 140.391,327.100 140.534,326.161 140.651 C 321.790 141.196,318.735 141.645,318.389 141.795 C 318.180 141.885,315.922 142.233,313.370 142.569 C 310.818 142.904,308.600 143.245,308.441 143.327 C 308.282 143.410,306.104 143.785,303.602 144.162 C 293.911 145.623,290.139 146.233,290.047 146.356 C 289.995 146.426,289.611 146.532,289.194 146.592 C 284.228 147.309,281.405 147.768,281.327 147.870 C 281.275 147.938,279.398 148.276,277.156 148.622 C 274.915 148.968,273.038 149.302,272.986 149.365 C 272.934 149.427,272.720 149.475,272.512 149.470 C 272.303 149.466,272.005 149.526,271.848 149.604 C 271.692 149.682,270.156 149.967,268.436 150.238 C 266.716 150.509,264.882 150.852,264.360 151.000 C 263.839 151.148,261.877 151.540,260.000 151.871 C 258.123 152.202,256.545 152.531,256.493 152.603 C 256.441 152.674,255.502 152.879,254.408 153.057 C 253.313 153.235,251.692 153.552,250.806 153.760 C 249.919 153.969,247.744 154.438,245.972 154.803 C 244.199 155.168,242.578 155.544,242.370 155.639 C 242.161 155.733,240.741 156.069,239.213 156.384 C 237.685 156.700,236.235 157.043,235.990 157.148 C 235.745 157.252,234.357 157.604,232.905 157.930 C 231.453 158.256,230.130 158.596,229.966 158.687 C 229.802 158.778,228.517 159.121,227.109 159.450 C 225.701 159.779,224.464 160.113,224.360 160.193 C 224.256 160.272,223.318 160.563,222.275 160.838 C 221.232 161.113,219.782 161.542,219.052 161.791 C 218.322 162.041,216.957 162.478,216.019 162.763 C 215.081 163.048,214.227 163.345,214.123 163.423 C 214.019 163.501,213.123 163.838,212.133 164.172 C 211.142 164.505,210.289 164.833,210.237 164.901 C 210.185 164.968,209.671 165.255,209.094 165.538 C 205.466 167.319,203.545 171.630,205.591 173.399 C 205.992 173.745,206.475 174.028,206.667 174.028 C 206.858 174.028,207.014 174.107,207.014 174.202 C 207.014 174.873,212.999 174.909,213.455 174.240 C 213.510 174.160,214.450 173.812,215.545 173.467 C 216.640 173.121,217.578 172.779,217.630 172.707 C 217.682 172.634,218.919 172.247,220.379 171.846 C 221.839 171.445,223.076 171.063,223.128 170.998 C 223.233 170.867,227.247 169.811,231.469 168.804 C 232.981 168.444,234.389 168.069,234.597 167.971 C 234.806 167.873,236.256 167.526,237.820 167.200 C 240.947 166.548,240.921 166.554,241.327 166.384 C 241.483 166.318,242.976 166.004,244.645 165.686 C 246.313 165.367,247.848 165.025,248.057 164.926 C 248.265 164.826,249.929 164.485,251.754 164.168 C 253.578 163.850,255.242 163.510,255.450 163.413 C 255.659 163.315,257.365 162.975,259.242 162.657 C 261.118 162.339,262.825 162.000,263.033 161.904 C 263.242 161.808,265.118 161.449,267.204 161.106 C 269.289 160.763,271.038 160.430,271.090 160.367 C 271.142 160.303,273.190 159.936,275.640 159.550 C 278.090 159.164,280.265 158.772,280.474 158.679 C 280.682 158.586,282.645 158.243,284.834 157.917 C 287.024 157.591,288.986 157.250,289.194 157.158 C 289.403 157.066,291.408 156.727,293.649 156.404 C 295.891 156.081,297.855 155.746,298.014 155.659 C 298.173 155.572,300.306 155.218,302.753 154.873 C 305.201 154.528,307.246 154.189,307.299 154.120 C 307.351 154.050,309.441 153.719,311.943 153.384 C 314.445 153.048,316.664 152.698,316.872 152.605 C 317.081 152.512,319.256 152.171,321.706 151.846 C 324.156 151.522,326.332 151.185,326.540 151.098 C 326.749 151.010,327.602 150.849,328.436 150.739 C 329.270 150.629,331.403 150.350,333.175 150.118 C 334.948 149.886,336.441 149.642,336.493 149.575 C 336.545 149.508,339.147 149.135,342.275 148.746 C 345.403 148.357,348.133 147.964,348.341 147.872 C 348.550 147.780,350.938 147.440,353.649 147.115 C 356.360 146.791,358.749 146.450,358.957 146.358 C 359.166 146.267,361.640 145.924,364.455 145.596 C 367.270 145.269,369.744 144.926,369.953 144.833 C 370.161 144.741,372.763 144.390,375.735 144.053 C 378.706 143.716,381.180 143.387,381.232 143.321 C 381.284 143.256,383.795 142.928,386.811 142.592 C 389.827 142.256,392.387 141.910,392.498 141.823 C 392.610 141.737,393.118 141.564,393.627 141.440 C 394.694 141.179,395.900 140.600,396.461 140.077 C 396.674 139.878,396.939 139.714,397.050 139.713 C 398.125 139.698,400.000 136.592,400.000 134.825 C 400.000 131.493,397.707 130.870,389.289 131.915 M43.602 173.934 C 43.732 174.090,43.923 174.218,44.027 174.218 C 44.133 174.218,44.113 174.092,43.981 173.934 C 43.851 173.777,43.660 173.649,43.555 173.649 C 43.450 173.649,43.470 173.775,43.602 173.934 M47.827 174.358 C 48.430 174.396,49.369 174.396,49.912 174.358 C 50.456 174.319,49.962 174.288,48.815 174.289 C 47.668 174.289,47.223 174.321,47.827 174.358 " stroke="none" fill="#0484cc" fill-rule="evenodd"></path></g></svg>